<?xml version="1.0" encoding="UTF-8" standalone="no"?>
<svg
   xmlns:dc="http://purl.org/dc/elements/1.1/"
   xmlns:cc="http://creativecommons.org/ns#"
   xmlns:rdf="http://www.w3.org/1999/02/22-rdf-syntax-ns#"
   xmlns:svg="http://www.w3.org/2000/svg"
   xmlns="http://www.w3.org/2000/svg"
   id="svg3828"
   version="1.1"
   viewBox="0 0 6.3499998 6.3499998"
   height="24"
   width="24">
  <defs
     id="defs3822" />
  <metadata
     id="metadata3825">
    <rdf:RDF>
      <cc:Work
         rdf:about="">
        <dc:format>image/svg+xml</dc:format>
        <dc:type
           rdf:resource="http://purl.org/dc/dcmitype/StillImage" />
        <dc:title></dc:title>
      </cc:Work>
    </rdf:RDF>
  </metadata>
  <g
     transform="translate(0,-290.65)"
     id="layer1">
    <path
       id="path3852"
       d="m 3.1931601,296.57968 c -0.0054,-0.007 -0.047657,-0.0579 -0.093898,-0.11111 -0.1165879,-0.13424 -0.3068648,-0.37089 -0.4529716,-0.56337 -0.7520916,-0.99087 -1.2144828,-1.88284 -1.3239869,-2.55405 -0.064194,-0.39348 -0.00881,-0.78277 0.1618562,-1.13773 0.2153484,-0.44788 0.6155001,-0.80815 1.0763846,-0.96909 0.9321156,-0.32549 1.9336137,0.0827 2.3617566,0.9626 0.2097569,0.43109 0.2467891,0.88909 0.1127797,1.39483 -0.1956626,0.73841 -0.8096601,1.77557 -1.6369256,2.7651 -0.182042,0.21774 -0.1934747,0.22961 -0.204995,0.21282 z m 0.2319907,-2.89139 c 0.1986497,-0.0687 0.3564746,-0.22584 0.4288952,-0.42703 0.023674,-0.0658 0.025934,-0.0848 0.025934,-0.21941 0,-0.13449 -0.00227,-0.1536 -0.025934,-0.21937 -0.08534,-0.23711 -0.2903411,-0.412 -0.5321923,-0.45404 -0.038359,-0.006 -0.1065539,-0.01 -0.157164,-0.006 -0.281833,0.016 -0.5165061,0.19796 -0.6113243,0.47384 -0.024048,0.0699 -0.027009,0.0926 -0.027009,0.20627 0,0.11399 0.00292,0.13614 0.027165,0.20628 0.08159,0.23602 0.2556376,0.39826 0.4919842,0.45859 0.1078806,0.0276 0.2693405,0.0197 0.3796463,-0.0185 z"
       style="fill:#1976d2;fill-opacity:1;stroke-width:0.00982273" />
  </g>
</svg>
